{"title":"kama sutra-a tale of love.1996.DVDRip.aaaevilacharya","uid":5822649,"size":624707728,"categoryP":"video","categoryS":"movies","magnet":"?xt=urn:btih:f2c2aa1c123a0955f66f88557cb716dc6ef8e869&amp;dn=kama+sutra-a+tale+of+love.1996.DVDRip.aaaevilacharya&amp;tr=udp%3A%2F%2Ftracker.openbittorrent.com%3A80&amp;tr=udp%3A%2F%2Fopen.demonii.com%3A1337&amp;tr=udp%3A%2F%2Ftracker.coppersurfer.tk%3A6969&amp;tr=udp%3A%2F%2Fexodus.desync.com%3A6969","seeders":0,"leechers":0,"uploader":"achaevil","files":2,"time":1284115593,"description":"General\nComplete name :kama sutra-a tale of love.\nFormat : AVI\nFormat/Info : Audio Video Interleave\nFile size : 596 MiB\nDuration : 1h 50mn\nOverall bit rate : 756 Kbps\nWriting library : MPlayer\n\nVideo\nID : 0\nFormat : MPEG-4 Visual\nFormat profile : Simple@L1\nFormat settings, BVOP : No\nFormat settings, QPel : No\nFormat settings, GMC : No warppoints\nFormat settings, Matrix : Default (H.263)\nCodec ID : DX50\nCodec ID/Hint : DivX 5\nDuration : 1h 50mn\nBit rate : 632 Kbps\nWidth : 630 pixels\nHeight : 302 pixels\nDisplay aspect ratio : 2.086\nFrame rate : 23.976 fps\nColor space : YUV\nChroma subsampling : 4:2:0\nBit depth : 8 bits\nScan type : Interlaced\nScan order : Top Field First\nBits/(Pixel*Frame) : 0.139\nStream size : 498 MiB (84%)\nWriting library : Lavc52.30.1\n\nAudio\nID : 1\nFormat : MPEG Audio\nFormat version : Version 1\nFormat profile : Layer 3\nMode : Joint stereo\nMode extension : MS Stereo\nCodec ID : 55\nCodec ID/Hint : MP3\nLanguage: english\nDuration : 1h 50mn\nBit rate mode : Constant\nBit rate : 112 Kbps\nChannel(s) : 2 channels\nSampling rate : 44.1 KHz\nStream size : 88.2 MiB (15%)\nAlignment : Aligned on interleaves\nInterleave, duration : 26 ms (0.63 video frame)\nInterleave, preload duration : 809 ms\nAwards:1 win &amp; 1 nomination\n\nplot::Tara and Maya are two inseparable friends in India. Their tastes, habits, and hobbies are the same. Years later, the two have matured, but have maintained their friendship. Tara gets married to the local prince, Raj Singh, who soon succeeds the throne as the sole heir. After the marriage, Raj gets bored of Tara and starts seeking another female to satisfy his sexual needs. He notices Maya and is instantly attracted to her. He has her included as one of his courtesans, and is intimate with her. Watch what happens when Tara finds out and the extent she will go to keep her marriage intact.\n\nscreenshots&gt;\n\n\n","torrent":{"xt":"urn:btih:f2c2aa1c123a0955f66f88557cb716dc6ef8e869","amp;dn":"kama+sutra-a+tale+of+love.1996.DVDRip.aaaevilacharya","amp;tr":["udp%3A%2F%2Ftracker.openbittorrent.com%3A80","udp%3A%2F%2Fopen.demonii.com%3A1337","udp%3A%2F%2Ftracker.coppersurfer.tk%3A6969","udp%3A%2F%2Fexodus.desync.com%3A6969"],"infoHash":"f2c2aa1c123a0955f66f88557cb716dc6ef8e869","infoHashBuffer":{"type":"Buffer","data":[242,194,170,28,18,58,9,85,246,111,136,85,124,183,22,220,110,248,232,105]},"announce":[],"urlList":[]}}